<svg xmlns="http://www.w3.org/2000/svg" viewBox="-12 105 195 35">
  <g fill="none" stroke="#1a2332" stroke-width="1.2" stroke-linecap="round">
    <path d="M165 115 Q145 112 120 113 Q90 115 60 118 Q35 120 18 118 L5 115" />
    <path d="M165 125 Q145 128 120 127 Q90 125 60 122 Q35 120 18 122 L5 125" />
    <path d="M168 118 L178 120 L182 118 L180 115 L175 113 L168 115 Z" />
    <circle cx="162" cy="120" r="2.5" fill="#1a2332" stroke="none" />
    <path d="M155 112 L157 108 L159 112" />
    <path d="M120 111 L122 107 L124 111" />
    <path d="M85 112 L87 108 L89 112" />
    <path d="M50 114 L52 110 L54 114" />
    <path d="M120 130 L122 134 L124 130" />
    <path d="M85 131 L87 135 L89 131" />
    <path d="M5 115 L-8 108 L-10 120 L-8 132 L5 125" />
    <path d="M150 117 L148 120 L150 123" stroke-width="0.6" />
    <path d="M115 118 L113 121 L115 124" stroke-width="0.6" />
    <path d="M80 119 L78 122 L80 125" stroke-width="0.6" />
    <path d="M45 121 L43 124 L45 127" stroke-width="0.6" />
  </g>
</svg>
